<svg width="164" height="50" viewBox="0 0 164 50" fill="none" xmlns="http://www.w3.org/2000/svg">
<path d="M27.9429 12.8392H38.3906V36.1723C38.3906 40.5202 36.8663 44.1228 33.9853 46.5863C31.4072 48.7907 27.8623 50 23.9565 50C21.4414 49.9916 18.951 49.5073 16.6186 48.5731V39.3621C16.9666 39.5604 17.2438 39.682 17.2438 39.682C18.7753 40.4192 20.4531 40.8082 22.155 40.821C23.6171 40.8624 25.0616 40.4967 26.3251 39.7652C26.8816 39.4446 27.3563 39.0011 27.7123 38.469C28.0683 37.9369 28.2961 37.3306 28.3779 36.697C27.1138 37.7725 25.5655 38.4655 23.9166 38.6936C22.2677 38.9217 20.5876 38.6754 19.0755 37.9839C17.5634 37.2924 16.2828 36.1848 15.3858 34.7924C14.4888 33.4001 14.0129 31.7815 14.0147 30.1287V12.852H24.4624V26.6797C24.4624 28.0011 25.9771 28.9865 27.3628 28.0107C27.538 27.887 27.6807 27.7234 27.7789 27.5335C27.877 27.3436 27.9277 27.1331 27.9268 26.9197L27.9429 12.8392ZM11.4044 30.1158V2.46675H0.956665V28.3818C0.956665 35.5036 5.69391 38.751 10.0992 38.751C11.4135 38.7468 12.7111 38.4585 13.9019 37.9064C14.0759 37.8264 14.3563 37.6536 14.3563 37.6536L13.9825 37.2569C12.2683 35.2745 11.3504 32.7343 11.4044 30.1222V30.1158ZM72.3409 23.2244V12.8392H68.6123C67.0558 4.69033 58.4288 -0.668637 49.76 2.55314C44.9261 4.3448 41.0009 10.0717 41.0009 15.1971V38.7638H41.4553C44.1428 38.6437 46.6804 37.5002 48.5408 35.5709C50.4013 33.6417 51.4415 31.075 51.4454 28.4042H55.7959V18.0254H51.4454V15.1715C51.4418 14.627 51.5852 14.0914 51.8606 13.6205C52.136 13.1496 52.5335 12.7605 53.0116 12.4936C55.6832 11.0155 58.4095 12.916 58.4095 15.4307V24.9392C58.3577 28.544 59.7463 32.0224 62.2714 34.6133C64.7965 37.2041 68.2526 38.6965 71.8833 38.7638H72.328V28.3946C71.4046 28.3946 70.519 28.0306 69.8658 27.3827C69.2126 26.7348 68.8452 25.8559 68.8443 24.9392V23.2244H72.3409Z" fill="#0C0B31"/>
<path d="M137.998 23.7746V37.9767H133.268V24.037C133.268 19.9354 130.664 17.4111 127.145 17.4111C123.626 17.4111 119.391 19.3563 119.391 24.6673V37.9767H114.667V13.4118H119.385V17.1455C120.906 14.1477 125.024 12.8839 127.789 12.8839C134.08 12.8871 138.04 16.8832 137.998 23.7746ZM157.627 37.9767L145.968 25.9822V37.9767H141.237V0H145.955V22.0918L154.756 13.4118H161.317L150.473 24.037L163.973 37.9767H157.627ZM106.388 37.9767H111.09V13.4118H106.372L106.388 37.9767ZM108.705 1.31494C106.913 1.31494 105.411 2.62989 105.411 4.36716C105.411 6.10443 106.929 7.41617 108.721 7.41617C110.564 7.41617 112.082 6.10123 112.082 4.36716C112.082 2.63309 110.548 1.31494 108.705 1.31494ZM90.6099 12.2249C87.1057 12.2249 83.7482 13.6197 81.2703 16.0797C78.7924 18.5397 77.4004 21.8762 77.4004 25.3551V49.92H82.1183V35.382C83.7448 36.7399 85.6773 37.6883 87.7518 38.1466C89.8262 38.6049 91.9814 38.5597 94.0345 38.0147C96.0875 37.4698 97.9779 36.4413 99.5452 35.0164C101.113 33.5914 102.311 31.8122 103.038 29.8297C103.765 27.8471 103.999 25.7196 103.721 23.6279C103.444 21.5361 102.662 19.5417 101.442 17.8139C100.222 16.0861 98.6008 14.6759 96.7151 13.7029C94.8294 12.73 92.7351 12.2229 90.6099 12.2249ZM90.6131 33.7695C88.9362 33.7695 87.2969 33.2758 85.9026 32.3509C84.5083 31.426 83.4215 30.1113 82.7798 28.5732C82.1381 27.0351 81.9702 25.3426 82.2973 23.7097C82.6245 22.0769 83.432 20.577 84.6178 19.3998C85.8035 18.2226 87.3143 17.4209 88.959 17.0961C90.6037 16.7713 92.3085 16.938 93.8578 17.5751C95.4071 18.2122 96.7312 19.2911 97.6629 20.6754C98.5945 22.0596 99.0918 23.6871 99.0918 25.3519C99.094 26.4599 98.8756 27.5574 98.4495 28.5813C98.0233 29.6053 97.3976 30.5356 96.6083 31.3189C95.819 32.1022 94.8817 32.7231 93.8501 33.1458C92.8185 33.5685 91.713 33.7848 90.597 33.7823L90.6131 33.7695Z" fill="url(#paint0_linear_2863_111188)"/>
<defs>
<linearGradient id="paint0_linear_2863_111188" x1="125.543" y1="4.48009" x2="136.103" y2="30.0551" gradientUnits="userSpaceOnUse">
<stop stop-color="#4AE3B8"/>
<stop offset="0.97" stop-color="#523BE4"/>
</linearGradient>
</defs>
</svg>
